{"title":"OSU_VS_PSU_Big_Ten_Championship_Second_Half_720p_20110313_TTL","uid":6241377,"size":1375892036,"categoryP":"video","categoryS":"hd___tv_shows","magnet":"?xt=urn:btih:a67e56bc75a0013146ea01a9216cda894629179d&amp;dn=OSU_VS_PSU_Big_Ten_Championship_Second_Half_720p_20110313_TTL&amp;tr=udp%3A%2F%2Ftracker.openbittorrent.com%3A80&amp;tr=udp%3A%2F%2Fopen.demonii.com%3A1337&amp;tr=udp%3A%2F%2Ftracker.coppersurfer.tk%3A6969&amp;tr=udp%3A%2F%2Fexodus.desync.com%3A6969","seeders":0,"leechers":1,"uploader":"thetorrentlord","files":2,"time":1300076829,"description":"OSU_VS_PSU_Big_Ten_Championship_Second_Half_720p_20110313_TTL.avi\nFormat                           : AVI\nFormat/Info                      : Audio Video Interleave\nFormat profile                   : OpenDML\nFile size                        : 1.28 GiB\nDuration                         : 1h 37mn\nOverall bit rate                 : 1 882 Kbps\nMovie name                       : OSU_VS_PSU_Big_Ten_Championship_Second_Half_720p_20110313_TTL.mpg\nDirector                         : created.with.SUPER(C).v2010.bld.37\nWriting application              : SUPER(C)   \n\nVideo\nID                               : 0\nFormat                           : MPEG-4 Visual\nFormat profile                   : Simple@L3\nFormat settings, BVOP            : No\nFormat settings, QPel            : No\nFormat settings, GMC             : No warppoints\nFormat settings, Matrix          : Default (H.263)\nCodec ID                         : XVID\nCodec ID/Hint                    : XviD\nDuration                         : 1h 37mn\nBit rate                         : 1 829 Kbps\nWidth                            : 1 280 pixels\nHeight                           : 720 pixels\nDisplay aspect ratio             : 16:9\nFrame rate                       : 29.970 fps\nResolution                       : 8 bits\nColorimetry                      : 4:2:0\nScan type                        : Progressive\nBits/(Pixel*Frame)               : 0.066\nStream size                      : 1.24 GiB (97%)\nWriting library                  : XviD 1.1.2 (UTC 2006-11-01)\n\nAudio\nID                               : 1\nFormat                           : MPEG Audio\nFormat version                   : Version 1\nFormat profile                   : Layer 3\nMode                             : Joint stereo\nFormat_Settings_ModeExtension    : MS Stereo\nCodec ID                         : 55\nCodec ID/Hint                    : MP3\nDuration                         : 40mn 46s\nBit rate mode                    : Constant\nBit rate                         : 112 Kbps\nChannel(s)                       : 2 channels\nSampling rate                    : 48.0 KHz\nStream size                      : 32.7 MiB (2%)\nAlignment                        : Aligned on interleaves\nInterleave, duration             : 24 ms (0.72 video frame)\nInterleave, preload duration     : 24 ms\n\n","torrent":{"xt":"urn:btih:a67e56bc75a0013146ea01a9216cda894629179d","amp;dn":"OSU_VS_PSU_Big_Ten_Championship_Second_Half_720p_20110313_TTL","amp;tr":["udp%3A%2F%2Ftracker.openbittorrent.com%3A80","udp%3A%2F%2Fopen.demonii.com%3A1337","udp%3A%2F%2Ftracker.coppersurfer.tk%3A6969","udp%3A%2F%2Fexodus.desync.com%3A6969"],"infoHash":"a67e56bc75a0013146ea01a9216cda894629179d","infoHashBuffer":{"type":"Buffer","data":[166,126,86,188,117,160,1,49,70,234,1,169,33,108,218,137,70,41,23,157]},"announce":[],"urlList":[]}}